<svg width="225" height="225" viewBox="0 0 225 225" fill="none" xmlns="http://www.w3.org/2000/svg">
<path d="M91.5 36.9C67.5 43.8 48.2 62.4 39.7 86.7C37.2 94.2 36.6 97.4 36.2 108C35.8 118.5 36.1 121.9 37.9 129C46 161.5 72.2 184.5 105.3 188.2C123 190.2 141.1 185.7 156.5 175.5C184 157.2 197.3 120.8 187.4 91.1C175.9 56.6 135.4 39.2 103.7 55.1C93.5 60.3 77.5 78 74.5 87.5C74.1 88.8 74.6 88.5 76.1 86.5C81.2 79.6 91.8 70.4 98.1 67.3C106.9 62.9 113.6 61.7 124.6 62.2C132.6 62.6 134.9 63.2 141.5 66.3C154.8 72.6 164.2 83.8 168.4 97.9C170.4 104.8 170.5 117.8 168.5 125.4C163.4 145 147 161.4 127.4 166.5C119.9 168.4 106.1 168.4 98.6 166.5C78.3 161.2 62.4 144.8 57 123.4C54.3 112.8 54.3 96.2 57 85.4C62.3 64.3 77.8 45.2 96.3 37C101.6 34.7 99.4 34.6 91.5 36.9Z" fill="#F80000"/>
</svg>
